<svg width="23" height="20" viewBox="0 0 23 20" fill="none" xmlns="http://www.w3.org/2000/svg">
<path d="M19.2052 3.21513C15.7618 -0.037794 12.7421 2.5559 11.7338 4.18139C11.5535 4.44755 11.4378 4.22147 11.4025 4.07516C11.2811 3.08622 7.81456 -0.868674 3.35181 2.51722C0.406461 4.75186 0.664471 8.05002 2.11256 9.57388C4.56007 11.8932 9.4829 17.0377 10.0191 17.7357C10.5553 18.4338 11.1961 18.0156 11.4494 17.7193L19.2964 11.1368C20.7482 9.79963 22.5426 6.36782 19.2052 3.21513Z" fill="#AEE3E3" stroke="#87D5DB" stroke-width="2.00312"/>
<path d="M14.3483 10.8635L8.07197 10.4955C8.0117 11.6333 8.52904 13.8794 11.0806 13.762C13.6321 13.6447 14.3222 11.7807 14.3483 10.8635Z" fill="#CB5D4D"/>
<path d="M10.0192 8.16225C8.12344 5.9833 5.94071 7.54894 5.83068 7.55021C6.00688 6.92463 6.75637 5.75695 8.34476 6.0908C9.93314 6.42464 10.1228 7.61087 10.0192 8.16225Z" fill="#1C1B19" stroke="#1C1B19" stroke-width="0.400624"/>
<path d="M16.7731 7.88153C14.44 6.17907 12.6604 8.19117 12.5534 8.21689C12.586 7.56779 13.0569 6.2626 14.6797 6.23462C16.3025 6.20664 16.7515 7.3209 16.7731 7.88153Z" fill="#1C1B19" stroke="#1C1B19" stroke-width="0.400624"/>
</svg>
